<?xml version="1.0" encoding="utf-8"?><svg viewBox="0 0 40 24" xmlns="http://www.w3.org/2000/svg" xmlns:xlink="http://www.w3.org/1999/xlink"><style>:root>svg{display:none}:root>svg:target{display:block}</style><svg fill="none" viewBox="0 0 40 16" id="arrow-icon" xmlns="http://www.w3.org/2000/svg"><path d="M39.707 8.707a1 1 0 000-1.414L33.343.929a1 1 0 10-1.414 1.414L37.586 8l-5.657 5.657a1 1 0 001.414 1.414l6.364-6.364zM0 9h39V7H0v2z" fill="#000"/></svg><svg fill="none" viewBox="0 0 24 24" id="download-icon" xmlns="http://www.w3.org/2000/svg"><path d="M12 0c-.525 0-.95.377-.95.842v16.223l-3.25-2.88a1.04 1.04 0 00-1.344 0 .776.776 0 000 1.19l4.87 4.315c.182.161.426.245.669.245.243 0 .486-.084.669-.245l4.87-4.315a.776.776 0 000-1.19 1.04 1.04 0 00-1.344 0l-3.25 2.88V.837C12.946.372 12.526 0 12 0z" fill="#000"/><path d="M24 23.163v-4.884c0-.465-.426-.842-.95-.842-.526 0-.951.377-.951.842v4.046H1.896v-4.046c0-.465-.426-.842-.945-.842-.52 0-.951.377-.951.842v4.884c0 .465.426.837.95.837h22.1c.524 0 .95-.372.95-.837z" fill="#000"/></svg></svg>