<svg xmlns="http://www.w3.org/2000/svg" fill="none" viewBox="0 0 24 24">
<path d="M12.0005 0C11.4753 0 11.0497 0.377143 11.0497 0.842449V17.0645L7.79962 14.1845C7.42929 13.8563 6.8268 13.8563 6.45646 14.1845C6.08613 14.5127 6.08613 15.0465 6.45646 15.3747L11.3261 19.6898C11.5085 19.8514 11.7517 19.9347 11.9949 19.9347C12.2381 19.9347 12.4813 19.8514 12.6637 19.6898L17.5334 15.3747C17.9037 15.0465 17.9037 14.5127 17.5334 14.1845C17.163 13.8563 16.5606 13.8563 16.1902 14.1845L12.9401 17.0645V0.837551C12.9456 0.372245 12.5256 0 12.0005 0Z" fill="black"/>
<path d="M24 23.1625V18.2792C24 17.8139 23.5744 17.4368 23.0493 17.4368C22.5242 17.4368 22.0986 17.8139 22.0986 18.2792V22.3249H1.8959V18.2792C1.8959 17.8139 1.47029 17.4368 0.950714 17.4368C0.431138 17.4368 0 17.8139 0 18.2792V23.1625C0 23.6278 0.42561 24 0.950714 24H23.0493C23.5744 24 24 23.6278 24 23.1625Z" fill="black"/>
</svg>